# xmcd CD database file
#
# Track frame offsets:
#	150
#	16490
#	28144
#	44061
#	60330
#	86511
#	112163
#	124239
#	135153
#	145013
#	158851
#
# Disc length: 2762 seconds
#
# Revision: 0
# Processed by: cddbd v1.4PL0 Copyright (c) Steve Scherf et al.
# Submitted via: Feurio! 1.65 - http://www.feurio.com
#
DISCID=930ac80b
DTITLE=Brenda Lee - Silver Threads And Golden Needles (DVD Plus)
DYEAR=2002
DGENRE=DVD Plus
TTITLE0=Coming On Strong -(Live)
TTITLE1=Silver Threads And Golden Needles -(Live)
TTITLE2=Johnny One Time -(Live)
TTITLE3=You're The One That I Want -(Live)
TTITLE4=Medley: Jambalaya/Is It True/My Whole World Is Falling Down/Sweet 
TTITLE4=Nothin's/The End Of The World/All Alone Am I -(Live)
TTITLE5=Medley: Dum Dum/ Fool Number One/Too Many Rivers/Jambalaya -(Live)
TTITLE6=How Much Love -(Live)
TTITLE7=That's All You Gotta Do -(Live)
TTITLE8=I'm Sorry -(Live)
TTITLE9=Your Mama Don't Dance -(Live)
TTITLE10=Medley: Good Old A Capella/The Old Landmark/Fly Away/Operator/Saved 
TTITLE10=(Live)
EXTD=DVD Plus - VÖ-Datum: 4.2.2002\r\nMazur, FSKo.AB
EXTT0=
EXTT1=
EXTT2=
EXTT3=
EXTT4=
EXTT5=
EXTT6=
EXTT7=
EXTT8=
EXTT9=
EXTT10=
PLAYORDER=
